<?xml version="1.0" standalone="no"?>
<!DOCTYPE svg PUBLIC "-//W3C//DTD SVG 20010904//EN"
 "http://www.w3.org/TR/2001/REC-SVG-20010904/DTD/svg10.dtd">
<svg version="1.0" xmlns="http://www.w3.org/2000/svg"
 width="528.000000pt" height="600.000000pt" viewBox="0 0 528.000000 600.000000"
 preserveAspectRatio="xMidYMid meet">

<g transform="translate(0.000000,600.000000) scale(0.100000,-0.100000)"
fill="#FC271C" stroke="none">
<path d="M645 5748 c-191 -36 -359 -208 -394 -402 -15 -84 -15 -4598 0 -4682
26 -142 129 -286 255 -352 126 -66 2 -62 2027 -62 l1837 0 0 580 0 580 -1604
0 c-1543 0 -1607 1 -1665 19 -83 26 -137 60 -197 123 -64 67 -99 127 -118 203
-24 88 -24 1221 -1 1310 33 127 137 248 262 308 l68 32 1628 3 1627 2 0 607
c0 587 -1 606 -18 590 -17 -15 -71 -17 -573 -17 -418 0 -558 3 -567 12 -9 9
-12 153 -12 585 l0 573 -1252 -1 c-741 -1 -1273 -5 -1303 -11z m718 -376 c122
-54 208 -184 212 -319 l2 -74 134 -135 134 -134 176 176 c173 173 177 178 194
240 l17 63 141 91 140 91 64 -63 c35 -35 62 -68 61 -73 -2 -6 -41 -70 -88
-142 l-85 -132 -62 -18 c-61 -17 -69 -24 -240 -195 l-178 -178 121 -121 121
-121 74 -2 c135 -4 252 -80 316 -206 24 -48 27 -67 28 -145 0 -51 -6 -107 -14
-129 l-13 -38 -92 91 c-50 50 -96 91 -102 91 -6 0 -44 -34 -84 -76 l-73 -75
91 -92 c51 -51 92 -95 92 -98 0 -14 -100 -34 -166 -33 -129 2 -250 79 -312
199 -20 39 -27 69 -30 136 l-4 87 -74 73 -74 73 -292 -291 c-309 -307 -318
-313 -391 -298 -45 10 -232 197 -240 242 -13 68 0 85 303 388 l290 290 -87 87
-88 86 -80 4 c-140 6 -248 77 -306 201 -38 83 -46 155 -25 237 9 35 19 66 22
69 2 3 46 -36 97 -87 l92 -92 80 80 80 80 -94 94 -94 94 49 16 c68 22 194 16
257 -12z"/>
<path d="M1233 5271 c91 -94 91 -101 -21 -213 -114 -114 -130 -116 -217 -28
-33 33 -64 60 -69 60 -15 0 1 -114 23 -166 26 -58 81 -118 136 -147 31 -16 61
-22 129 -24 l90 -2 98 -98 98 -98 50 3 c38 3 56 -1 78 -17 l29 -20 74 75 74
74 -145 145 -145 145 0 77 c0 65 -5 88 -28 135 -52 106 -150 168 -265 168
l-55 0 66 -69z"/>
<path d="M2386 5236 c-106 -69 -110 -73 -128 -126 l-18 -54 44 -44 43 -44 56
18 c55 19 57 21 131 134 l75 115 -36 37 c-21 21 -42 38 -48 37 -5 0 -59 -33
-119 -73z"/>
<path d="M1945 4750 l-260 -260 38 -37 37 -38 262 262 262 262 -34 36 c-19 19
-36 35 -40 35 -3 0 -122 -117 -265 -260z"/>
<path d="M1871 4456 l-73 -74 18 -27 c12 -18 17 -45 17 -79 l-1 -51 83 -85 83
-85 0 -75 c-1 -128 63 -231 176 -281 50 -22 166 -38 166 -23 0 5 -28 36 -62
71 -87 88 -86 102 30 215 113 111 119 112 214 21 l71 -68 -5 70 c-12 170 -129
279 -301 280 l-77 0 -133 133 -132 132 -74 -74z"/>
<path d="M1228 4203 c-197 -198 -299 -307 -304 -326 -6 -25 3 -37 92 -127 74
-76 104 -100 124 -100 20 0 88 63 334 309 290 291 308 311 302 338 -4 17 -42
63 -95 116 -76 75 -93 87 -122 87 -30 0 -59 -26 -331 -297z m362 94 c0 -16
-401 -417 -417 -417 -37 0 0 45 185 232 188 189 232 224 232 185z"/>
<path d="M3300 5185 l0 -495 497 0 498 0 -495 495 c-272 272 -496 495 -497
495 -2 0 -3 -223 -3 -495z"/>
<path d="M1170 3309 c-114 -22 -212 -100 -263 -207 l-32 -67 0 -625 0 -625 34
-69 c61 -124 156 -190 298 -207 46 -6 780 -8 1803 -7 1889 4 1753 -1 1856 64
60 37 104 91 142 171 l27 58 0 615 0 615 -32 67 c-56 120 -157 198 -280 218
-74 12 -3491 11 -3553 -1z m1045 -414 c109 -32 174 -105 194 -217 31 -179 -64
-322 -235 -357 -32 -6 -131 -11 -221 -11 l-163 0 0 -200 0 -200 -70 0 -70 0 0
500 0 500 256 0 c201 0 267 -3 309 -15z m888 0 c73 -19 134 -58 187 -120 78
-90 110 -195 110 -356 0 -121 -24 -231 -66 -310 -39 -70 -118 -141 -189 -170
-57 -22 -74 -24 -317 -27 l-258 -3 0 500 0 501 238 0 c178 0 252 -4 295 -15z
m1157 -50 l0 -65 -270 0 -270 0 0 -145 0 -145 235 0 235 0 0 -65 0 -65 -235 0
-235 0 0 -225 0 -225 -70 0 -70 0 0 500 0 500 340 0 340 0 0 -65z"/>
<path d="M1790 2610 l0 -170 145 0 c176 0 236 11 282 54 56 51 65 151 18 222
-34 52 -82 64 -272 64 l-173 0 0 -170z"/>
<path d="M2720 2410 l0 -370 135 0 c210 0 270 20 332 113 43 65 54 103 60 224
9 169 -21 271 -101 341 -55 48 -118 62 -283 62 l-143 0 0 -370z"/>
</g>
</svg>
