<svg version="1.2" xmlns="http://www.w3.org/2000/svg" viewBox="0 0 468 404" width="468" height="404"><defs><clipPath clipPathUnits="userSpaceOnUse" id="cp1"><path d="m1847.38-2326.4v3192h-3192v-3192z"/></clipPath></defs><style>.a{fill:#231f20}</style><g clip-path="url(#cp1)"><path class="a" d="m118.4 401.4l-57.9-100.2 50.7 37.6-57.9-100.2 7.2 62.6-57.8-100.1 57.8-100.2-7.2 62.6 57.9-100.2-50.7 37.6 57.9-100.2h115.7l-57.9 25h115.7l-57.8-25h115.6l57.9 100.2-50.6-37.6 57.8 100.2-7.2-62.6 57.8 100.2-57.8 100.1 7.2-62.6-57.8 100.2 50.6-37.6-57.9 100.2h-115.6l57.8-25h-115.7l57.9 25z"/></g></svg>