<svg version="1.2" xmlns="http://www.w3.org/2000/svg" viewBox="0 0 516 464" width="516" height="464"><defs><clipPath clipPathUnits="userSpaceOnUse" id="cp1"><path d="m1871.34-1596.19v3192h-3192v-3192z"/></clipPath></defs><style>.a{fill:#231f20}</style><g clip-path="url(#cp1)"><path class="a" d="m142.3 431.6l-25 14.5-57.8-100.2 25-14.4-25 14.4-57.9-100.2 25.1-14.4-25.1-14.5 57.9-100.2 25 14.5-25-14.5 57.8-100.2 25 14.5v-28.9h115.7v28.9-28.9h115.7v28.9l25.1-14.5 57.8 100.2-25.1 14.5 25.1-14.5 57.8 100.2-25 14.5 25 14.4-57.8 100.2-25.1-14.4 25.1 14.4-57.8 100.2-25.1-14.5v29h-115.7v-29 29h-115.7z"/></g></svg>