<svg version="1.2" xmlns="http://www.w3.org/2000/svg" viewBox="0 0 524 504" width="524" height="504"><defs><clipPath clipPathUnits="userSpaceOnUse" id="cp1"><path d="m626.46-2274.48v3192h-3192v-3192z"/></clipPath></defs><style>.a{fill:#231f20}</style><g clip-path="url(#cp1)"><path class="a" d="m146.4 453.4h-57.9l29-50.1-29-50.1h-57.8l28.9-50.1-28.9-50.1-28.9-50.1h57.8l28.9-50.1-28.9-50.1h57.9l28.9-50.1 28.9-50.1 28.9 50.1h57.9l28.9-50.1 28.9 50.1h57.8 57.9l-28.9 50.1 28.9 50.1h57.8l-28.9 50.1 28.9 50.1 29 50.1h-57.9l-28.9 50.1 28.9 50.1h-57.8l-29 50.1-28.9 50-28.9-50h-57.8l-29 50-28.9-50z"/></g></svg>