<svg version="1.2" xmlns="http://www.w3.org/2000/svg" viewBox="0 0 472 488" width="472" height="488"><defs><clipPath clipPathUnits="userSpaceOnUse" id="cp1"><path d="m1236.94-2290.46v3192h-3192v-3192z"/></clipPath></defs><style>.a{fill:#231f20}</style><g clip-path="url(#cp1)"><path class="a" d="m126.1 430.5c-25.9 14.9-71.1-14.9-101-66.6-29.9-51.8-33.1-105.9-7.2-120.8-25.9-14.9-22.7-69 7.2-120.8 29.9-51.7 75.1-81.5 101-66.6 0-29.9 48.4-54.1 108.2-54.1 59.7 0 108.2 24.2 108.2 54.1 25.8-14.9 71 14.9 100.9 66.6 29.9 51.8 33.1 105.9 7.3 120.8 25.8 14.9 22.6 69-7.3 120.8-29.9 51.7-75.1 81.5-100.9 66.6 0 29.9-48.5 54.1-108.2 54.1-59.8 0-108.2-24.2-108.2-54.1z"/></g></svg>