<svg version="1.2" xmlns="http://www.w3.org/2000/svg" viewBox="0 0 468 456" width="468" height="456"><defs><clipPath clipPathUnits="userSpaceOnUse" id="cp1"><path d="m1224.97-917.9v3192h-3192v-3192z"/></clipPath></defs><style>.a{fill:#231f20}</style><g clip-path="url(#cp1)"><path class="a" d="m117.4 428.6l-28.9-50.1-36.1-12.5-28.9-50.1 7.2-37.6-28.9-50.1 28.9-50.1-7.2-37.5 28.9-50.1 36.1-12.6 28.9-50h57.9l28.9-25.1h57.9l28.9 25.1h57.8l28.9 50 36.2 12.6 28.9 50.1-7.2 37.5 28.9 50.1-28.9 50.1 7.2 37.6-28.9 50.1-36.2 12.5-28.9 50.1h-57.8l-28.9 25h-57.9l-28.9-25z"/></g></svg>