<svg version="1.2" xmlns="http://www.w3.org/2000/svg" viewBox="0 0 464 404" width="464" height="404"><defs><clipPath clipPathUnits="userSpaceOnUse" id="cp1"><path d="m3088.3-1624.15v3192h-3192v-3192z"/></clipPath></defs><style>.a{fill:#231f20}</style><g clip-path="url(#cp1)"><path class="a" d="m117.3 403.7l-28.9-50.1 7.3-37.6-29-50.1-36.1-12.5-28.9-50.1 28.9-50.1 36.1-12.5 29-50.1-7.3-37.6 28.9-50.1h57.9l28.9 25.1h57.8l29-25.1h57.8l28.9 50.1-7.2 37.6 28.9 50.1 36.2 12.5 28.9 50.1-28.9 50.1-36.2 12.5-28.9 50.1 7.2 37.6-28.9 50.1h-57.8l-29-25.1h-57.8l-28.9 25.1z"/></g></svg>