<svg version="1.2" xmlns="http://www.w3.org/2000/svg" viewBox="0 0 516 464" width="516" height="464"><defs><clipPath clipPathUnits="userSpaceOnUse" id="cp1"><path d="m1248.89-1596.19v3192h-3192v-3192z"/></clipPath></defs><style>.a{fill:#231f20}</style><g clip-path="url(#cp1)"><path class="a" d="m141.4 431.6l-25.1 14.5-28.9-50.1 25.1-14.5-29-50-25 14.4-28.9-50.1 25-14.4-28.9-50.1-25.1-14.5 29-50.1 25 14.5 28.9-50.1-25-14.5 28.9-50.1 25.1 14.5 28.9-50.1v-28.9h57.8v28.9h57.9v-28.9h57.8v28.9h57.8l25.1-14.5 28.9 50.1-25 14.5 28.9 50.1 25-14.5 28.9 50.1-25 14.5 28.9 50.1 25.1 14.4-29 50.1-25-14.4-28.9 50.1 25 14.4-28.9 50.1-25-14.5-29 50.1v29h-57.8v-29h-57.8v29h-57.9v-29z"/></g></svg>